<svg xmlns="http://www.w3.org/2000/svg" viewBox="0 0 1000 1000"><defs><style>.cls-1{fill:#fff;}</style></defs><title>ok-wb-easy</title><g id="_7_Экспортируемая_область_ЧБ" data-name="[7] Экспортируемая область ЧБ"><g id="экспорт"><g id="О_-_голова_справа_внизу" data-name="О - голова справа внизу"><path class="cls-1" d="M808.34,539.72A314.46,314.46,0,0,0,811,499H757a337.89,337.89,0,0,1-5.61,61.7Z"/><path class="cls-1" d="M738,656c-42.93,84.93-140.34,145.47-221,153.16v.37c120.34-6.48,222.5-81.37,268.27-186.48Z"/></g><g id="О_-_голова_слева_внизу" data-name="О - голова слева внизу"><path class="cls-1" d="M248.79,560.76A329.73,329.73,0,0,1,243,499H189a314.46,314.46,0,0,0,2.66,40.72Z"/><path class="cls-1" d="M262,656l-47.27-33C260.5,728.16,362.66,803.05,483,809.53v-.37C402.34,801.47,304.93,740.93,262,656Z"/></g><g id="маска"><path class="cls-1" d="M707,593,577,568l-77-40-77,40L293,593,183.5,552.7a320,320,0,0,0,8.21,36l81.69,56.94C312,729,416.53,795,500,795s188-66,226.6-149.38l81.69-56.94a320,320,0,0,0,8.21-36Z"/></g><g id="глаза"><path class="cls-1" d="M682.67,563.17c.09-.21.19-.42.28-.64.4-.91.78-1.82,1.16-2.74l.27-.63c.37-.92.74-1.84,1.09-2.76.09-.22.18-.44.26-.66q.53-1.37,1-2.76c.09-.22.17-.45.25-.68.33-.92.64-1.84,1-2.76.08-.24.17-.47.25-.71.3-.91.59-1.83.87-2.75l.24-.75c.28-.9.54-1.81.8-2.72.07-.27.16-.54.23-.81.25-.89.48-1.78.71-2.67l.24-.89c.22-.87.43-1.74.63-2.62.08-.32.16-.64.23-1,.2-.86.38-1.72.56-2.58.07-.34.15-.68.22-1,.17-.84.33-1.68.48-2.53.07-.36.15-.73.21-1.09.15-.83.28-1.66.41-2.48.07-.39.14-.78.2-1.17.12-.82.23-1.65.35-2.47,0-.4.11-.8.16-1.2.11-.81.2-1.64.29-2.45.05-.42.1-.83.14-1.24.09-.87.17-1.74.24-2.62,0-.36.07-.72.1-1.08.1-1.24.18-2.48.25-3.73H517l69,40.12,86.64,14.75,8.75,2.13.27-.6h0C682,564.66,682.34,563.91,682.67,563.17Z"/><path class="cls-1" d="M304.24,509c.07,1.25.15,2.49.25,3.73,0,.36.07.72.1,1.08.07.88.15,1.75.24,2.62,0,.41.09.82.14,1.24.09.81.18,1.64.29,2.45.05.4.11.8.16,1.2.12.82.23,1.65.35,2.47.06.39.13.78.2,1.17.13.82.26,1.65.41,2.48.06.36.14.73.21,1.09.15.85.31,1.69.48,2.53.07.35.15.69.22,1,.18.86.36,1.72.56,2.58.07.31.15.63.22.94.21.88.42,1.76.64,2.64.07.29.16.57.23.86.23.9.47,1.8.72,2.69.07.27.16.54.23.81.26.91.52,1.82.8,2.72l.24.75c.28.92.57,1.84.87,2.75.08.24.17.47.25.71.31.92.62,1.84.95,2.76.08.23.16.46.25.68q.5,1.39,1,2.76c.08.22.17.44.26.66.35.92.72,1.84,1.09,2.76l.27.63c.38.92.76,1.83,1.16,2.74.09.22.19.43.28.64.33.74.66,1.49,1,2.23h0l.27.6,8.75-2.13L414,549.12,483,509H304.24Z"/></g><g id="О_-_голова_справа_внутр" data-name="О - голова справа внутр"><path class="cls-1" d="M673.39,394a202.86,202.86,0,0,0-16.24-23.12L624,394Z"/><path class="cls-1" d="M569.51,308.28A201.08,201.08,0,0,0,517,296.72V346.6Z"/></g><g id="О_-_голова_слева_внутр" data-name="О - голова слева внутр"><path class="cls-1" d="M483,346.6V296.72a201.08,201.08,0,0,0-52.51,11.56Z"/><path class="cls-1" d="M376,394l-33.15-23.12A202.86,202.86,0,0,0,326.61,394Z"/></g><g id="О_-_голова_справа_наруж" data-name="О - голова справа наруж"><path class="cls-1" d="M701.29,394h91.52a310.23,310.23,0,0,0-46.74-85.17l-69,48.15A227,227,0,0,1,701.29,394Z"/><path class="cls-1" d="M667.39,236.87A309.18,309.18,0,0,0,517,188.47v84.16a225.8,225.8,0,0,1,75.38,19Z"/></g><g id="О_-_голова_слева_наруж" data-name="О - голова слева наруж"><path class="cls-1" d="M407.62,291.6a225.8,225.8,0,0,1,75.38-19V188.47a309.18,309.18,0,0,0-150.39,48.4Z"/><path class="cls-1" d="M298.71,394a227,227,0,0,1,24.22-37l-69-48.15A310.23,310.23,0,0,0,207.19,394Z"/></g><g id="К_-_повязка" data-name="К - повязка"><path class="cls-1" d="M861,114,500,377.56,139,114l20,54L398,344,169,202l10,36.24L422.87,409H191.81a320.41,320.41,0,0,0-12.64,80H820.83a320.41,320.41,0,0,0-12.64-80H577.13L821,238.24,831,202,602,344,841,168Z"/></g></g></g></svg>