<svg xmlns="http://www.w3.org/2000/svg" viewBox="0 0 1000 1000"><defs><style>.cls-1{fill:#fff;}</style></defs><title>ok-wb-easy-07-11</title><g id="_11_Экспортируемая_область_ЧБ" data-name="[11] Экспортируемая область ЧБ"><g id="экспорт"><g id="О_-_голова_низ" data-name="О - голова низ"><path class="cls-1" d="M756.94,504C754.58,669.39,635.78,785.06,517,795.26v14.27C679.2,800.79,808.35,667.77,810.94,504Z"/><path class="cls-1" d="M483,795.24C364.24,784.81,245.46,666.61,243.06,504h-54C191.65,667.77,320.8,800.79,483,809.53Z"/></g><g id="О_-_голова_верх" data-name="О - голова верх"><path class="cls-1" d="M701.29,394h91.52a310.29,310.29,0,0,0-46.74-85.16l-69,48.14A227,227,0,0,1,701.29,394Z"/><path class="cls-1" d="M483,188.46a309.16,309.16,0,0,0-150.4,48.41l75,54.73a225.6,225.6,0,0,1,75.39-19Z"/><path class="cls-1" d="M517,188.46v84.18a225.6,225.6,0,0,1,75.39,19l75-54.73A309.16,309.16,0,0,0,517,188.46Z"/><path class="cls-1" d="M298.71,394a227,227,0,0,1,24.22-37l-69-48.14A310.29,310.29,0,0,0,207.19,394Z"/></g><g id="повязка"><path class="cls-1" d="M861,114,500,377.56,139,114l20,54,10,34,10,36.24L422.87,409H191.81a320.41,320.41,0,0,0-12.64,80H820.83a320.41,320.41,0,0,0-12.64-80H577.13L821,238.24,831,202l10-34Z"/></g></g></g></svg>